<svg width="137" height="127" viewBox="0 0 137 127" fill="none" xmlns="http://www.w3.org/2000/svg">
<path d="M134.835 28.7842C137.028 31.9093 137.522 35.4457 136.315 39.3932L113.699 113.903C112.658 117.412 110.56 120.359 107.408 122.744C104.255 125.129 100.897 126.321 97.3335 126.321H21.4254C17.2038 126.321 13.1329 124.855 9.21273 121.922C5.2926 118.988 2.56495 115.383 1.02979 111.107C-0.286054 107.434 -0.340881 103.952 0.865314 100.662C0.865314 100.443 0.947554 99.703 1.11204 98.4419C1.27652 97.1809 1.38617 96.1666 1.441 95.399C1.49582 94.9604 1.41358 94.371 1.19428 93.6309C0.974968 92.8907 0.892727 92.3561 0.947554 92.0272C1.05721 91.4241 1.27652 90.8484 1.60548 90.3001C1.93444 89.7519 2.38676 89.1076 2.96245 88.3675C3.53813 87.6273 3.99045 86.9831 4.31942 86.4348C5.58044 84.3514 6.81405 81.8431 8.02024 78.9098C9.22644 75.9766 10.0488 73.4682 10.4875 71.3848C10.6519 70.8365 10.6656 70.0141 10.5286 68.9176C10.3915 67.821 10.3778 67.0535 10.4875 66.6148C10.6519 66.0117 11.118 65.2442 11.8855 64.3121C12.6531 63.3801 13.1192 62.7495 13.2836 62.4206C14.435 60.4468 15.5864 57.9248 16.7377 54.8544C17.8891 51.7841 18.5744 49.3169 18.7938 47.4528C18.8486 46.9594 18.78 46.0821 18.5882 44.8211C18.3963 43.5601 18.41 42.7925 18.6293 42.5184C18.8486 41.8056 19.4517 40.9695 20.4386 40.01C21.4254 39.0506 22.0285 38.4338 22.2479 38.1596C23.2896 36.7341 24.4546 34.4177 25.7431 31.2103C27.0315 28.0029 27.7854 25.3575 28.0047 23.2741C28.0595 22.8355 27.9773 22.1364 27.758 21.1769C27.5387 20.2175 27.4838 19.491 27.5935 18.9976C27.7031 18.559 27.9499 18.0655 28.3337 17.5172C28.7174 16.969 29.2109 16.3385 29.814 15.6257C30.4171 14.913 30.8831 14.3373 31.2121 13.8987C31.6507 13.2407 32.103 12.4046 32.569 11.3903C33.0351 10.376 33.4463 9.41654 33.8027 8.5119C34.159 7.60725 34.5976 6.62036 35.1185 5.55124C35.6394 4.48211 36.1739 3.60488 36.7222 2.91954C37.2705 2.2342 37.9969 1.58998 38.9016 0.986887C39.8062 0.383789 40.7931 0.0685338 41.8622 0.0411203C42.9314 0.0137068 44.2335 0.164481 45.7687 0.493443L45.6864 0.740165C47.7698 0.246722 49.1679 0 49.8807 0H112.466C116.523 0 119.648 1.53516 121.841 4.60547C124.034 7.67578 124.528 11.2395 123.321 15.2967L100.788 89.8067C98.8138 96.3311 96.8537 100.539 94.9074 102.431C92.961 104.322 89.4384 105.268 84.3395 105.268H12.8724C11.3921 105.268 10.3504 105.679 9.74729 106.502C9.14419 107.379 9.11678 108.558 9.66505 110.038C10.9809 113.876 14.9284 115.795 21.5077 115.795H97.4157C99.0057 115.795 100.541 115.37 102.021 114.52C103.502 113.67 104.461 112.532 104.9 111.107L129.572 29.9356C129.956 28.7294 130.093 27.1668 129.983 25.2478C132.066 26.0703 133.684 27.249 134.835 28.7842ZM47.3312 28.9487C47.1119 29.6614 47.1667 30.2782 47.4957 30.7991C47.8247 31.3199 48.3729 31.5804 49.1405 31.5804H99.1428C99.8555 31.5804 100.555 31.3199 101.24 30.7991C101.925 30.2782 102.378 29.6614 102.597 28.9487L104.324 23.6853C104.543 22.9725 104.488 22.3557 104.159 21.8349C103.83 21.314 103.282 21.0536 102.515 21.0536H52.5124C51.7996 21.0536 51.1006 21.314 50.4152 21.8349C49.7299 22.3557 49.2776 22.9725 49.0583 23.6853L47.3312 28.9487ZM40.5053 50.0023C40.2859 50.715 40.3408 51.3318 40.6697 51.8527C40.9987 52.3735 41.547 52.634 42.3145 52.634H92.3168C93.0295 52.634 93.7286 52.3735 94.4139 51.8527C95.0993 51.3318 95.5516 50.715 95.7709 50.0023L97.498 44.7389C97.7173 44.0261 97.6624 43.4093 97.3335 42.8884C97.0045 42.3676 96.4562 42.1072 95.6887 42.1072H45.6864C44.9737 42.1072 44.2746 42.3676 43.5893 42.8884C42.9039 43.4093 42.4516 44.0261 42.2323 44.7389L40.5053 50.0023Z" fill="white"/>
</svg>
