<svg width="117" height="129" viewBox="0 0 117 129" fill="none" xmlns="http://www.w3.org/2000/svg">
<path d="M34.5083 119.472C29.1473 114.773 25.3233 108.57 23.533 101.669C21.7428 94.7683 22.069 87.4886 24.4693 80.7757L36.9013 46.1646C37.1871 45.3649 37.6951 44.6632 38.3657 44.142C39.0362 43.6208 39.8415 43.3016 40.6871 43.222C41.5326 43.1423 42.3834 43.3055 43.1395 43.6923C43.8956 44.0791 44.5257 44.6735 44.9558 45.4059L46.7652 48.616C48.1659 50.8923 48.4578 53.6938 47.5823 56.2036L41.8624 72.1959L44.3721 74.4138L79.1583 35.0167C81.2011 32.6821 84.7031 32.4486 87.0961 34.4914C89.3723 36.5342 89.6058 40.0945 87.6214 42.3708L61.6485 71.7289L65.0337 74.7056L96.8432 38.6354C98.886 36.3008 102.446 36.0673 104.723 38.1101C107.057 40.1529 107.291 43.7716 105.131 46.0479L73.3801 82.1181L76.7653 85.0947L104.139 54.044C106.182 51.7094 109.742 51.4759 112.018 53.5187C114.295 55.5615 114.586 59.1219 112.544 61.2814L85.17 92.4489L88.4968 95.4255L106.999 74.4721C109.042 72.1375 112.602 71.904 114.937 73.9468C117.271 75.9896 117.446 79.55 115.404 81.7095L85.0532 116.262C81.9477 119.796 78.1759 122.682 73.9536 124.756C69.7312 126.83 65.1413 128.051 60.4465 128.35C55.7517 128.648 51.0442 128.017 46.5934 126.494C42.1426 124.971 38.0359 122.585 34.5083 119.472ZM56.0453 47.974L72.6213 29.1801C74.0221 27.6042 75.7731 26.2618 77.6991 25.503L79.917 20.9505C80.247 20.2928 80.4423 19.5759 80.4915 18.8417C80.5408 18.1076 80.4429 17.371 80.2037 16.6751C79.9645 15.9793 79.5888 15.3382 79.0986 14.7895C78.6084 14.2408 78.0135 13.7955 77.3489 13.4796C76.016 12.8404 74.485 12.7515 73.087 13.2321C71.689 13.7126 70.5363 14.7241 69.8781 16.0478L55.2282 46.0479C55.5201 46.6899 55.8702 47.3319 56.0453 47.974ZM52.6017 40.8533V41.1451L68.8275 8.05161C69.461 6.7113 69.5406 5.17525 69.0489 3.77667C68.5572 2.37809 67.5339 1.22975 66.201 0.580759C65.5429 0.253227 64.8262 0.0598346 64.0927 0.0118333C63.3591 -0.0361679 62.6233 0.0621798 61.9281 0.301156C61.2329 0.540131 60.5922 0.914964 60.0431 1.40385C59.4941 1.89273 59.0478 2.48591 58.7302 3.14886L43.3216 34.7249C47.1153 35.3669 50.4422 37.5264 52.6017 40.8533ZM16.2397 77.799L28.6717 43.1879C30.2476 38.8105 33.9246 35.8338 38.3021 34.8416L50.7924 9.21893C51.4379 7.88695 51.5301 6.35367 51.049 4.95392C50.5678 3.55416 49.5523 2.40166 48.2243 1.74808C47.5662 1.42055 46.8495 1.22715 46.1159 1.17915C45.3824 1.13115 44.6466 1.2295 43.9514 1.46848C43.2562 1.70745 42.6154 2.08228 42.0664 2.57117C41.5174 3.06005 41.0711 3.65323 40.7535 4.31618L17.5821 51.5927L14.6638 50.1335L15.8895 33.149C16.123 30.5225 15.0724 27.8961 13.2047 26.0283L10.5199 23.3435C7.77666 20.8338 3.28248 22.5264 2.99065 26.2618L0.072346 62.974C-0.686412 74.8807 4.56653 86.2621 13.7884 93.3827C13.6716 88.2465 14.4304 82.9352 16.2397 77.799Z" fill="white"/>
</svg>
