<svg width="132" height="119" viewBox="0 0 132 119" fill="none" xmlns="http://www.w3.org/2000/svg">
<path fill-rule="evenodd" clip-rule="evenodd" d="M57.0178 2.93396C59.5252 1.03045 62.5867 0 65.7347 0C68.8827 0 71.9442 1.03045 74.4516 2.93396L80.7946 7.74889C99.4282 21.9047 115.391 39.2668 127.935 59.0217L129.972 62.222C130.895 63.675 131.41 65.3492 131.465 67.0694C131.519 68.7897 131.11 70.4931 130.282 72.0015C129.453 73.5099 128.234 74.7681 126.753 75.6446C125.271 76.521 123.582 76.9836 121.861 76.984H115.22C115.604 85.8258 115.124 94.6772 113.778 103.432C113.13 107.647 110.995 111.489 107.758 114.264C104.521 117.039 100.397 118.563 96.1332 118.56H77.748V86.8829C77.748 83.6968 76.4823 80.6412 74.2294 78.3882C71.9765 76.1353 68.9208 74.8696 65.7347 74.8696C62.5486 74.8696 59.4929 76.1353 57.24 78.3882C54.9871 80.6412 53.7214 83.6968 53.7214 86.8829V118.56H35.3362C31.0764 118.553 26.959 117.025 23.7256 114.252C20.4923 111.479 18.3557 107.642 17.7007 103.432C16.3552 94.6772 15.8747 85.8161 16.2591 76.984H9.60855C7.8874 76.9836 6.19793 76.521 4.71665 75.6446C3.23537 74.7681 2.01665 73.5099 1.18779 72.0015C0.358943 70.4931 -0.0496147 68.7897 0.00480643 67.0694C0.0592275 65.3492 0.57463 63.675 1.49717 62.222L3.52501 59.0121C16.0725 39.2598 32.0386 21.9009 50.6748 7.74889L57.0178 2.93396Z" fill="white"/>
</svg>
