<svg width="123" height="123" viewBox="0 0 123 123" fill="none" xmlns="http://www.w3.org/2000/svg">
<path d="M44.8185 0H77.9805C84.8573 0 90.3108 -4.92651e-07 94.7001 0.35895C99.1964 0.724199 102.994 1.49248 106.47 3.25575C112.097 6.12638 116.672 10.705 119.537 16.3354C121.307 19.799 122.075 23.6026 122.44 28.0989C122.799 32.4882 122.799 37.9417 122.799 44.8185V77.9805C122.799 84.8573 122.799 90.3108 122.44 94.7001C122.075 99.1964 121.307 102.994 119.543 106.47C116.674 112.097 112.098 116.671 106.47 119.537C102.994 121.307 99.1964 122.075 94.7001 122.44C90.3108 122.799 84.8573 122.799 77.9805 122.799H44.8185C37.9417 122.799 32.4882 122.799 28.0989 122.44C23.6026 122.075 19.8053 121.307 16.3354 119.543C10.7064 116.675 6.12996 112.099 3.26204 106.47C1.49248 102.994 0.7242 99.1964 0.365249 94.7001C5.6303e-07 90.3108 0 84.8573 0 77.9805V44.8185C0 37.9417 -4.92651e-07 32.4882 0.35895 28.0989C0.724199 23.6026 1.49248 19.8053 3.25575 16.3354C6.12531 10.7055 10.7041 6.12889 16.3354 3.26204C19.799 1.49248 23.6026 0.724199 28.0989 0.35895C32.4882 -4.92651e-07 37.9417 0 44.8185 0ZM9.44608 72.4388V77.7727C9.44608 84.9076 9.44608 89.9707 9.77354 93.9318C10.0884 97.8362 10.6993 100.261 11.6754 102.181C13.6374 106.031 16.7676 109.162 20.6176 111.124C22.5383 112.1 24.9628 112.704 28.8672 113.025C31.3169 113.227 34.1885 113.303 37.7087 113.334C37.4191 104.568 38.7604 96.2681 41.4431 88.6483C34.39 78.5347 22.6706 72.0169 9.44608 72.4388ZM113.359 53.0177C76.4377 49.9131 45.8072 77.4137 47.1674 113.353H77.7727C84.9076 113.353 89.9707 113.353 93.9318 113.025C97.8362 112.711 100.261 112.1 102.181 111.124C106.031 109.162 109.162 106.031 111.124 102.181C112.1 100.261 112.704 97.8362 113.025 93.9318C113.353 89.9644 113.353 84.9013 113.353 77.7727L113.359 53.0177ZM22.0408 36.21C22.0408 40.8029 23.8654 45.2078 27.1131 48.4555C30.3608 51.7032 34.7657 53.5278 39.3587 53.5278C43.9516 53.5278 48.3565 51.7032 51.6042 48.4555C54.8519 45.2078 56.6765 40.8029 56.6765 36.21C56.6765 31.617 54.8519 27.2121 51.6042 23.9644C48.3565 20.7167 43.9516 18.8922 39.3587 18.8922C34.7657 18.8922 30.3608 20.7167 27.1131 23.9644C23.8654 27.2121 22.0408 31.617 22.0408 36.21ZM31.4869 36.21C31.4869 34.1222 32.3163 32.12 33.7925 30.6438C35.2687 29.1676 37.2709 28.3382 39.3587 28.3382C41.4464 28.3382 43.4486 29.1676 44.9248 30.6438C46.401 32.12 47.2304 34.1222 47.2304 36.21C47.2304 38.2977 46.401 40.2999 44.9248 41.7761C43.4486 43.2524 41.4464 44.0817 39.3587 44.0817C37.2709 44.0817 35.2687 43.2524 33.7925 41.7761C32.3163 40.2999 31.4869 38.2977 31.4869 36.21Z" fill="white"/>
</svg>
