<svg width="71" height="116" viewBox="0 0 71 116" fill="none" xmlns="http://www.w3.org/2000/svg">
<path d="M32.0245 22.4172C38.2092 22.4172 43.2331 17.3933 43.2331 11.2086C43.2331 5.02384 38.2092 0 32.0245 0C25.8398 0 20.8159 5.02384 20.8159 11.2086C20.8159 17.3933 25.8398 22.4172 32.0245 22.4172ZM14.6912 52.0198L19.2147 47.4963V61.367C19.2147 66.9713 21.6566 72.3153 25.9198 75.9581L40.2108 88.2075C41.3917 89.2283 42.1723 90.6294 42.3924 92.1705L44.9144 109.804C45.4148 113.307 48.6572 115.749 52.1599 115.248C55.6626 114.748 58.1045 111.505 57.6041 108.003L55.0822 90.3692C54.4217 85.7456 52.0999 81.5424 48.5572 78.5001L41.6519 72.5755V49.5179L42.4125 50.4586C46.0552 55.0221 51.5795 57.6641 57.4239 57.6641H64.069C67.6117 57.6641 70.4739 54.8019 70.4739 51.2592C70.4739 47.7165 67.6117 44.8543 64.069 44.8543H57.4239C55.4825 44.8543 53.6411 43.9737 52.4201 42.4525L48.8374 37.9691C44.2339 32.2046 37.2485 28.8421 29.8629 28.8421C23.4179 28.8421 17.2332 31.404 12.6897 35.9675L5.62431 42.9529C2.02155 46.5556 0 51.4394 0 56.5433V64.049C0 67.5917 2.86219 70.4539 6.4049 70.4539C9.94761 70.4539 12.8098 67.5917 12.8098 64.049V56.5433C12.8098 54.842 13.4903 53.2207 14.6912 52.0198ZM17.1731 87.9273C16.8729 88.9681 16.3125 89.9288 15.5519 90.6894L1.88144 104.36C-0.620476 106.862 -0.620476 110.925 1.88144 113.427C4.38335 115.929 8.44646 115.929 10.9484 113.427L24.6188 99.7563C26.9206 97.4546 28.6019 94.5924 29.5026 91.45L29.9429 89.9288L20.7359 82.0428C20.2355 81.6024 19.7351 81.1621 19.2547 80.6817L17.1731 87.9273Z" fill="white"/>
</svg>
