<svg width="156" height="140" viewBox="0 0 156 140" fill="none" xmlns="http://www.w3.org/2000/svg">
<path d="M64.3652 2.17352e-05C64.9976 0.00191591 65.6234 0.12834 66.2068 0.372078C66.7903 0.615816 67.3201 0.972095 67.7659 1.42057C68.2117 1.86904 68.5648 2.40093 68.805 2.98586C69.0452 3.5708 69.1679 4.19732 69.166 4.82966L69.1058 24.1121C69.1017 25.3892 68.5904 26.6123 67.6844 27.5124C66.7784 28.4125 65.552 28.9158 64.275 28.9117C62.9979 28.9075 61.7748 28.3962 60.8747 27.4903C59.9746 26.5843 59.4713 25.3579 59.4754 24.0808L59.5356 4.80077C59.5375 4.16843 59.6639 3.54265 59.9077 2.95917C60.1514 2.37569 60.5077 1.84593 60.9562 1.40014C61.4046 0.954347 61.9365 0.601255 62.5214 0.361023C63.1064 0.12079 63.7329 -0.00187813 64.3652 2.17352e-05ZM24.7386 12.8662C25.774 12.1189 27.0639 11.8135 28.3245 12.0171C29.585 12.2208 30.7131 12.9168 31.4606 13.9521L42.745 29.587C43.1312 30.0987 43.4113 30.6823 43.5689 31.3036C43.7265 31.925 43.7584 32.5715 43.6629 33.2054C43.5673 33.8393 43.3462 34.4477 43.0124 34.9949C42.6786 35.5422 42.2389 36.0173 41.719 36.3924C41.1992 36.7675 40.6097 37.035 39.9851 37.1793C39.3605 37.3235 38.7134 37.3416 38.0818 37.2325C37.4501 37.1234 36.8466 36.8892 36.3066 36.5438C35.7666 36.1983 35.301 35.7485 34.9372 35.2208L23.6528 19.5882C22.9055 18.5528 22.6 17.263 22.8037 16.0024C23.0073 14.7418 23.7033 13.6137 24.7386 12.8662ZM128.46 46.5678C128.658 47.1687 128.734 47.8025 128.687 48.4331C128.639 49.0637 128.467 49.6787 128.182 50.243C127.896 50.8073 127.502 51.3098 127.023 51.7219C126.543 52.1339 125.987 52.4475 125.386 52.6446L115.351 55.9382C114.143 56.3183 112.833 56.2071 111.706 55.6286C110.58 55.05 109.726 54.0508 109.331 52.8474C108.936 51.644 109.031 50.3333 109.595 49.1994C110.159 48.0654 111.148 47.1995 112.346 46.7893L122.381 43.4933C122.982 43.2957 123.616 43.2186 124.247 43.2662C124.878 43.3138 125.493 43.4853 126.058 43.7708C126.622 44.0563 127.125 44.4503 127.537 44.9302C127.95 45.4101 128.263 45.9666 128.46 46.5678ZM0.23165 46.5967C0.424902 45.9942 0.734992 45.4357 1.14419 44.9532C1.5534 44.4706 2.05369 44.0734 2.61648 43.7843C3.17926 43.4952 3.79351 43.3198 4.42411 43.2683C5.0547 43.2167 5.68928 43.2899 6.29157 43.4837L24.6471 49.3847C25.8632 49.7755 26.8742 50.6333 27.4578 51.7696C28.0414 52.9058 28.1497 54.2273 27.7589 55.4434C27.3681 56.6595 26.5103 57.6705 25.374 58.2541C24.2378 58.8377 22.9163 58.946 21.7002 58.5552L3.34227 52.6542C2.74002 52.4607 2.1818 52.1504 1.6995 51.7411C1.2172 51.3318 0.820272 50.8315 0.531401 50.2687C0.242531 49.706 0.0673756 49.0918 0.015943 48.4613C-0.0354896 47.8308 0.037809 47.1988 0.23165 46.5967ZM27.7553 79.3809C28.1462 80.5964 28.0383 81.9173 27.4554 83.0532C26.8726 84.1892 25.8624 85.0471 24.6471 85.4384L6.29157 91.3395C5.0758 91.7306 3.75447 91.6227 2.61823 91.0396C1.482 90.4564 0.623957 89.4458 0.232854 88.23C-0.158248 87.0143 -0.0503696 85.6929 0.532758 84.5567C1.11589 83.4205 2.1265 82.5624 3.34227 82.1713L21.7002 76.2727C22.915 75.8825 24.2351 75.9904 25.3704 76.5728C26.5057 77.1551 27.3635 78.1666 27.7553 79.3809ZM31.0778 113.239C31.5883 113.612 32.0202 114.082 32.349 114.622C32.6778 115.163 32.8969 115.762 32.994 116.387C33.091 117.012 33.064 117.65 32.9145 118.264C32.765 118.879 32.4959 119.458 32.1227 119.968L31.4438 120.898C30.69 121.928 29.5575 122.618 28.2955 122.814C27.0336 123.01 25.7454 122.696 24.7145 121.942C23.6836 121.189 22.9944 120.056 22.7984 118.794C22.6024 117.532 22.9158 116.244 23.6696 115.213L24.3486 114.284C24.7218 113.773 25.1919 113.341 25.7321 113.013C26.2723 112.684 26.8719 112.465 27.4968 112.368C28.1216 112.271 28.7595 112.298 29.3739 112.447C29.9884 112.597 30.5673 112.866 31.0778 113.239ZM74.3303 36.7014C67.3655 34.4362 59.8374 34.6059 52.9818 37.1827C46.1261 39.7596 40.3501 44.5905 36.6017 50.8826C32.8533 57.1746 31.3553 64.5541 32.3535 71.8097C33.3517 79.0653 36.7868 85.7661 42.095 90.8122C42.8499 91.5305 43.8175 91.9845 44.8524 92.1061C45.8874 92.2276 46.9338 92.0102 47.8347 91.4863C49.0401 90.7833 50.288 90.1694 51.5785 89.6445C52.7397 89.1719 53.6709 88.2649 54.1739 87.1165C56.4797 81.8421 60.413 77.444 65.3981 74.5657C70.4441 71.6704 76.2895 70.4799 82.0659 71.171C82.8702 71.2669 83.6857 71.1583 84.4369 70.8553C85.1881 70.5523 85.8508 70.0646 86.3635 69.4375C88.3816 66.9678 90.7181 64.7763 93.3118 62.9202C94.1416 62.3264 94.7614 61.4843 95.0816 60.5154C95.4018 59.5465 95.406 58.501 95.0934 57.5296C93.529 52.6618 90.8309 48.2352 87.2211 44.6141C83.6113 40.993 79.1932 38.281 74.3303 36.7014ZM105.049 19.5882C105.429 19.0761 105.703 18.4937 105.856 17.8748C106.009 17.2558 106.037 16.6126 105.94 15.9826C105.842 15.3525 105.62 14.7481 105.287 14.2044C104.954 13.6608 104.517 13.1886 104 12.8155C103.483 12.4423 102.897 12.1755 102.276 12.0306C101.655 11.8856 101.012 11.8655 100.383 11.9712C99.754 12.0769 99.1525 12.3065 98.6132 12.6465C98.0739 12.9866 97.6075 13.4303 97.241 13.9521L85.9566 29.5846C85.2092 30.6203 84.9038 31.9105 85.1077 33.1713C85.3115 34.4322 86.0079 35.5604 87.0436 36.3078C88.0793 37.0552 89.3695 37.3606 90.6304 37.1567C91.8912 36.9529 93.0194 36.2565 93.7668 35.2208L105.049 19.5882ZM128.754 67.2539C132.032 69.14 134.906 71.6534 137.212 74.6505C139.519 77.6475 141.212 81.0695 142.196 84.721C143.253 88.647 143.462 92.753 142.81 96.7662C146.699 98.569 149.992 101.446 152.3 105.058C154.609 108.67 155.837 112.867 155.84 117.154C155.84 123.117 153.456 128.847 149.233 133.056C145.008 137.268 139.287 139.636 133.321 139.641H128.417L128.362 139.643H62.7931C56.8263 139.639 51.104 137.271 46.8789 133.058C44.7871 130.971 43.1272 128.492 41.994 125.763C40.8608 123.034 40.2766 120.109 40.2748 117.154C40.2748 111.193 42.6583 105.465 46.8813 101.254C50.2678 97.8793 54.6378 95.6664 59.3623 94.934C59.4682 94.2454 59.6102 93.5633 59.7884 92.8876C60.4524 90.3685 61.6084 88.0058 63.1898 85.9356C64.7712 83.8654 66.7466 82.1287 69.0023 80.8255C71.8583 79.1881 75.0768 78.2873 78.3678 78.2041C81.6587 78.1208 84.9187 78.8579 87.8538 80.3488L89.3296 77.804C93.1674 71.1812 99.4763 66.3521 106.871 64.3768C114.26 62.4067 122.126 63.4411 128.754 67.2539Z" fill="white"/>
</svg>
